<svg viewBox="0 0 211 206" fill="none" xmlns="http://www.w3.org/2000/svg">
  <path d="M69.2708 41.93C62.4824 41.93 55.9597 47.5681 55.9597 59.2599C55.9597 68.9931 58.3504 81.219 75.2032 120.834C86.9796 148.58 88.2192 154.693 88.2192 159.559C88.2192 163.922 85.74 166.592 82.2277 166.592C77.4464 166.592 71.7795 162.705 63.8106 144.04C53.9822 120.923 47.1348 116.146 39.3135 116.146C32.9088 116.146 27.8913 121.517 27.8913 128.668C27.8913 133.565 29.5146 140.33 33.2039 148.995C36.9818 157.957 37.9558 161.31 37.9558 163.922C37.9558 167.364 35.1814 170.658 30.5771 170.658H0L14.108 203.923H36.5686C48.1679 203.923 54.0117 197.068 54.0117 189.649C54.0117 183.477 49.8207 177.691 49.8207 170.42C49.8207 166.266 52.3884 163.031 56.6976 163.031C60.6821 163.031 66.7621 166.711 72.7535 180.806C81.0471 200.332 89.1341 206 96.6604 206C104.187 206 109.529 200.54 109.529 190.688C109.529 183.002 107.345 171.756 89.0751 128.728C84.4118 117.719 82.818 109.825 82.818 105.73C82.818 99.9435 85.7104 97.1541 88.9571 97.1541C93.6204 97.1541 98.0476 100.151 109.735 127.659L142.113 203.893H153.742L111.359 104.068C90.6689 55.3132 80.3093 41.9003 69.3298 41.9003L69.2708 41.93Z" fill="#000000"/>
  <path d="M90.2262 0L176.852 203.952H211L124.375 0H90.2262Z" fill="#000000"/>
</svg>
